<?xml version="1.0" encoding="UTF-8" standalone="no"?>
<!DOCTYPE svg PUBLIC "-//W3C//DTD SVG 1.1//EN" "http://www.w3.org/Graphics/SVG/1.1/DTD/svg11.dtd">
<svg width="100%" height="100%" viewBox="0 0 1433 1433" version="1.1" xmlns="http://www.w3.org/2000/svg" xmlns:xlink="http://www.w3.org/1999/xlink" xml:space="preserve" xmlns:serif="http://www.serif.com/" style="fill-rule:evenodd;clip-rule:evenodd;stroke-linecap:round;stroke-linejoin:round;stroke-miterlimit:1.5;">
    <g transform="matrix(1,0,0,1,-515.392,-825.926)">
        <path d="M1894.23,1211.11C1894.23,1028.31 1745.81,879.896 1563.01,879.896L900.578,879.896C717.775,879.896 569.362,1028.31 569.362,1211.11L569.362,1873.54C569.362,2056.35 717.775,2204.76 900.578,2204.76L1563.01,2204.76C1745.81,2204.76 1894.23,2056.35 1894.23,1873.54L1894.23,1211.11Z" style="fill:rgb(193,193,193);stroke:rgb(155,155,155);stroke-width:107.94px;"/>
        <g transform="matrix(0.679816,0,0,0.679816,263.05,435.703)">
            <g transform="matrix(1032.21,0,0,1032.21,780.136,1910.34)">
                <path d="M0.054,-0C0.047,-0 0.042,-0.002 0.037,-0.007C0.032,-0.011 0.03,-0.016 0.03,-0.023C0.03,-0.026 0.03,-0.029 0.031,-0.031L0.248,-0.698C0.25,-0.705 0.254,-0.71 0.26,-0.714C0.265,-0.718 0.272,-0.72 0.279,-0.72L0.357,-0.72C0.364,-0.72 0.371,-0.718 0.377,-0.714C0.382,-0.71 0.386,-0.705 0.388,-0.698L0.605,-0.031C0.606,-0.029 0.606,-0.026 0.606,-0.023C0.606,-0.016 0.604,-0.011 0.599,-0.007C0.594,-0.002 0.589,-0 0.582,-0L0.51,-0C0.503,-0 0.496,-0.002 0.491,-0.007C0.485,-0.011 0.481,-0.016 0.479,-0.023L0.434,-0.167L0.2,-0.167L0.155,-0.023C0.153,-0.016 0.149,-0.011 0.143,-0.007C0.138,-0.002 0.131,-0 0.124,-0L0.054,-0ZM0.399,-0.28L0.317,-0.547L0.235,-0.28L0.399,-0.28Z" style="fill-rule:nonzero;"/>
            </g>
            <g transform="matrix(1032.21,0,0,1032.21,1432.49,1910.34)">
                <path d="M0.279,0.207C0.212,0.207 0.159,0.195 0.119,0.171C0.08,0.148 0.06,0.111 0.06,0.061C0.06,0.024 0.073,-0.007 0.098,-0.034C0.074,-0.053 0.062,-0.08 0.062,-0.114C0.062,-0.137 0.068,-0.158 0.079,-0.179C0.09,-0.199 0.105,-0.216 0.124,-0.231C0.103,-0.249 0.086,-0.271 0.075,-0.297C0.063,-0.322 0.057,-0.35 0.057,-0.381C0.057,-0.422 0.067,-0.458 0.086,-0.489C0.106,-0.52 0.133,-0.545 0.167,-0.562C0.2,-0.579 0.237,-0.587 0.278,-0.587C0.307,-0.587 0.335,-0.582 0.362,-0.573L0.559,-0.573C0.565,-0.573 0.57,-0.571 0.574,-0.567C0.578,-0.563 0.58,-0.558 0.58,-0.552L0.58,-0.486C0.58,-0.48 0.578,-0.475 0.574,-0.471C0.57,-0.467 0.565,-0.465 0.559,-0.465L0.481,-0.465C0.492,-0.439 0.498,-0.411 0.498,-0.381C0.498,-0.341 0.488,-0.306 0.469,-0.275C0.449,-0.244 0.422,-0.22 0.389,-0.203C0.356,-0.186 0.319,-0.177 0.278,-0.177C0.247,-0.177 0.217,-0.182 0.187,-0.193C0.173,-0.179 0.166,-0.164 0.166,-0.149C0.166,-0.136 0.171,-0.127 0.181,-0.122C0.191,-0.117 0.206,-0.113 0.225,-0.112C0.252,-0.111 0.279,-0.11 0.306,-0.11L0.351,-0.109C0.407,-0.108 0.453,-0.098 0.488,-0.079C0.523,-0.06 0.54,-0.025 0.54,0.027C0.54,0.087 0.516,0.132 0.468,0.162C0.419,0.192 0.356,0.207 0.279,0.207ZM0.278,-0.282C0.309,-0.282 0.334,-0.291 0.352,-0.309C0.37,-0.327 0.379,-0.351 0.379,-0.381C0.379,-0.411 0.37,-0.435 0.352,-0.454C0.334,-0.473 0.309,-0.482 0.278,-0.482C0.247,-0.482 0.222,-0.473 0.203,-0.454C0.185,-0.435 0.176,-0.411 0.176,-0.381C0.176,-0.351 0.185,-0.327 0.203,-0.309C0.222,-0.291 0.247,-0.282 0.278,-0.282ZM0.288,0.104C0.375,0.104 0.418,0.083 0.418,0.042C0.418,0.025 0.411,0.013 0.399,0.008C0.386,0.003 0.367,-0 0.344,-0L0.246,-0C0.221,-0 0.201,-0.001 0.185,-0.003C0.178,0.009 0.174,0.023 0.174,0.039C0.174,0.064 0.184,0.081 0.203,0.09C0.223,0.099 0.251,0.104 0.288,0.104Z" style="fill-rule:nonzero;"/>
            </g>
        </g>
        <g transform="matrix(1.07438,0,0,1.07438,270.263,-57.0217)">
            <path d="M947.095,1007.64C947.095,993.346 935.486,981.736 921.187,981.736L869.37,981.736C855.071,981.736 843.462,993.346 843.462,1007.64L843.462,1059.46C843.462,1073.76 855.071,1085.37 869.37,1085.37L921.187,1085.37C935.486,1085.37 947.095,1073.76 947.095,1059.46L947.095,1007.64Z" style="fill:rgb(155,155,155);"/>
        </g>
        <g transform="matrix(1.07438,0,0,1.07438,-60.7368,-57.0217)">
            <path d="M947.095,1007.64C947.095,993.346 935.486,981.736 921.187,981.736L869.37,981.736C855.071,981.736 843.462,993.346 843.462,1007.64L843.462,1059.46C843.462,1073.76 855.071,1085.37 869.37,1085.37L921.187,1085.37C935.486,1085.37 947.095,1073.76 947.095,1059.46L947.095,1007.64Z" style="fill:rgb(155,155,155);"/>
        </g>
        <g transform="matrix(1.07438,0,0,1.07438,601.263,-57.0217)">
            <path d="M947.095,1007.64C947.095,993.346 935.486,981.736 921.187,981.736L869.37,981.736C855.071,981.736 843.462,993.346 843.462,1007.64L843.462,1059.46C843.462,1073.76 855.071,1085.37 869.37,1085.37L921.187,1085.37C935.486,1085.37 947.095,1073.76 947.095,1059.46L947.095,1007.64Z" style="fill:rgb(155,155,155);"/>
        </g>
        <g transform="matrix(1.07438,0,0,1.07438,270.263,920.978)">
            <path d="M947.095,1007.64C947.095,993.346 935.486,981.736 921.187,981.736L869.37,981.736C855.071,981.736 843.462,993.346 843.462,1007.64L843.462,1059.46C843.462,1073.76 855.071,1085.37 869.37,1085.37L921.187,1085.37C935.486,1085.37 947.095,1073.76 947.095,1059.46L947.095,1007.64Z" style="fill:rgb(155,155,155);"/>
        </g>
        <g transform="matrix(1.07438,0,0,1.07438,-60.7368,920.978)">
            <path d="M947.095,1007.64C947.095,993.346 935.486,981.736 921.187,981.736L869.37,981.736C855.071,981.736 843.462,993.346 843.462,1007.64L843.462,1059.46C843.462,1073.76 855.071,1085.37 869.37,1085.37L921.187,1085.37C935.486,1085.37 947.095,1073.76 947.095,1059.46L947.095,1007.64Z" style="fill:rgb(155,155,155);"/>
        </g>
        <g transform="matrix(1.07438,0,0,1.07438,601.263,920.978)">
            <path d="M947.095,1007.64C947.095,993.346 935.486,981.736 921.187,981.736L869.37,981.736C855.071,981.736 843.462,993.346 843.462,1007.64L843.462,1059.46C843.462,1073.76 855.071,1085.37 869.37,1085.37L921.187,1085.37C935.486,1085.37 947.095,1073.76 947.095,1059.46L947.095,1007.64Z" style="fill:rgb(155,155,155);"/>
        </g>
    </g>
</svg>
